HIERARCHY
ROOT Hips
{
  OFFSET -102.467 93.6631 130.069
  CHANNELS 6 Xposition Yposition Zposition Zrotation Xrotation Yrotation
  JOINT LeftUpLeg
  {
    OFFSET 8.64259 1.95398 -2.38835
    CHANNELS 3 Zrotation Xrotation Yrotation
    JOINT LeftLeg
    {
      OFFSET 43.7702 0 0
      CHANNELS 3 Zrotation Xrotation Yrotation
      JOINT LeftFoot
      {
        OFFSET 40.6238 0 0
        CHANNELS 3 Zrotation Xrotation Yrotation
        JOINT LeftToeBase
        {
          OFFSET 12.7242 0 0
          CHANNELS 3 Zrotation Xrotation Yrotation
          End Site
          {
            OFFSET 0 0 0
          }
        }
      }
    }
  }
  JOINT RightUpLeg
  {
    OFFSET -8.2249 1.95398 -2.59336
    CHANNELS 3 Zrotation Xrotation Yrotation
    JOINT RightLeg
    {
      OFFSET 43.5653 0 0
      CHANNELS 3 Zrotation Xrotation Yrotation
      JOINT RightFoot
      {
        OFFSET 40.6238 0 0
        CHANNELS 3 Zrotation Xrotation Yrotation
        JOINT RightToeBase
        {
          OFFSET 12.7242 0 0
          CHANNELS 3 Zrotation Xrotation Yrotation
          End Site
          {
            OFFSET 0 0 0
          }
        }
      }
    }
  }
  JOINT Spine
  {
    OFFSET 0.165834 0.87714 6.61349
    CHANNELS 3 Zrotation Xrotation Yrotation
    JOINT Spine1
    {
      OFFSET 7.38963 1.71661e-005 0
      CHANNELS 3 Zrotation Xrotation Yrotation
      JOINT Spine2
      {
        OFFSET 11.9445 1.14441e-005 0
        CHANNELS 3 Zrotation Xrotation Yrotation
        JOINT Spine3
        {
          OFFSET 14.7254 4.19617e-005 0
          CHANNELS 3 Zrotation Xrotation Yrotation
          JOINT Spine4
          {
            OFFSET 10.9679 0 0
            CHANNELS 3 Zrotation Xrotation Yrotation
            JOINT RightShoulder
            {
              OFFSET 2.46616 -1.6653 3.69651
              CHANNELS 3 Zrotation Xrotation Yrotation
              JOINT RightArm
              {
                OFFSET 13.0012 0 0
                CHANNELS 3 Zrotation Xrotation Yrotation
                JOINT RightForeArm
                {
                  OFFSET 28.7848 1.52588e-005 0
                  CHANNELS 3 Zrotation Xrotation Yrotation
                  JOINT RightHand
                  {
                    OFFSET 26.5688 1.52588e-005 0
                    CHANNELS 3 Zrotation Xrotation Yrotation
                    End Site
                    {
                      OFFSET 0 0 0
                    }
                  }
                }
              }
            }
            JOINT LeftShoulder
            {
              OFFSET 2.38034 -1.29275 -3.7523
              CHANNELS 3 Zrotation Xrotation Yrotation
              JOINT LeftArm
              {
                OFFSET 16.3182 6.10351e-005 0
                CHANNELS 3 Zrotation Xrotation Yrotation
                JOINT LeftForeArm
                {
                  OFFSET 27.0901 0 0
                  CHANNELS 3 Zrotation Xrotation Yrotation
                  JOINT LeftHand
                  {
                    OFFSET 24.5451 1.52588e-005 0
                    CHANNELS 3 Zrotation Xrotation Yrotation
                    End Site
                    {
                      OFFSET 0 0 0
                    }
                  }
                }
              }
            }
            JOINT Neck
            {
              OFFSET 5.0226 -0.0266342 0
              CHANNELS 3 Zrotation Xrotation Yrotation
              JOINT Head
              {
                OFFSET 6.69363 2.86102e-005 0
                CHANNELS 3 Zrotation Xrotation Yrotation
                End Site
                {
                  OFFSET 0 0 0
                }
              }
            }
          }
        }
      }
    }
  }
}
MOTION
Frames:	7
Frame Time:	0.0416667
47.33 18.9692 27.5992 -9.97606 -43.376 -100.497 -86.5859 79.6328 16.462 -108.95 -8.33063 4.24817 67.9513 11.3463 11.5732 33.839 1.55304 19.5555 153.435 4.42549 68.1019 -44.7773 33.032 20.4708 80.7421 -1.34968 15.1351 82.4567 -9.87484 6.71994 -2.6113 8.4137 -86.5245 10.1123 -3.62111 7.20192 -1.57435 -3.3015 7.35328 -24.0377 -5.61485 5.78721 -4.02504 -5.61485 5.78718 103.58 -2.7291 -76.8638 -25.4836 71.9364 29.7786 -16.6459 -0.727556 -152.25 -27.9101 -6.01054 19.208 -83.4966 -34.9756 86.4599 37.2136 19.7432 -45.4355 -20.6237 8.2486 -135.975 -4.23275 0.334893 -30.129 43.9664 -21.3899 -7.18846 -16.4133 -15.4467 -8.45292 
46.417 19.7026 25.8325 -9.35711 -34.6677 -98.4377 -90.0616 79.7652 29.8441 -106.933 -9.2867 4.24876 71.2205 12.8426 11.9503 32.4754 1.33039 18.0974 160.816 5.37915 72.8005 -37.996 22.1555 6.36643 79.2719 -0.108601 18.3503 65.8199 -1.3302 15.5912 -1.23013 8.53138 -87.0558 9.80418 -1.11875 5.93039 -1.87987 -0.857096 5.97367 -24.3285 -2.84707 5.32297 -4.31583 -2.84704 5.32298 104.774 1.74787 -70.967 -0.610831 67.1454 9.2402 -19.2496 11.9826 -153.877 -21.141 -5.3467 23.6543 -81.061 -23.2822 89.6904 6.04604 -9.5761 -29.5057 -12.4423 12.9944 -132.03 -30.5322 2.95947 -15.5049 30.4452 -19.6092 0.3577 -2.54791 -19.0572 -16.6764 
45.1939 20.343 25.9001 -6.75724 -30.3236 -95.613 -90.8464 80.3388 35.1598 -105.217 -5.25898 3.65794 70.9449 13.7464 14.1448 32.6111 1.70594 21.6869 164.357 6.92049 75.5377 -34.036 19.6874 2.92041 73.1592 0.758814 17.1958 46.6016 4.56435 27.9213 -0.949309 8.14838 -87.5741 10.5703 -0.775861 4.89184 -1.10972 -0.560085 4.92117 -23.5837 -2.20885 4.43413 -3.57103 -2.20885 4.43414 105.413 2.16051 -68.069 14.2506 62.6338 -9.70168 -20.0785 16.1315 -153.454 -19.481 -5.05342 24.4605 -77.8451 -9.66461 97.6158 -20.9724 -62.1004 -27.8887 -24.997 37.071 -121.822 -33.0834 3.56192 -18.5877 38.3129 -17.5457 1.03734 -6.98435 -16.8078 -10.0102 
42.9933 21.2583 28.3302 -5.89575 -29.7463 -94.8654 -110.468 79.9883 53.416 -104.643 -1.15989 3.17878 72.0311 13.1253 11.5503 30.6955 1.80943 24.9252 166.111 6.26984 75.842 -29.2696 16.098 1.71434 64.1313 1.19662 9.9731 30.2157 3.43096 21.5792 -1.06227 7.5452 -88.1285 11.7869 -1.23355 3.8595 0.110652 -1.06263 3.90994 -22.3931 -2.33585 3.31134 -2.38047 -2.33585 3.3113 106.485 1.31952 -64.0093 18.9895 40.1314 -27.8112 -26.2508 26.2785 -146.498 -22.2322 -5.61601 23.6435 -77.005 3.91658 100.292 -88.0907 -69.1786 -96.6785 -12.2502 27.1144 -118.304 -2.31835 0.437975 -8.63661 38.8071 -13.197 1.65777 -8.73662 -12.9255 -5.86341 
38.7808 23.2133 32.0686 -4.01027 -28.6281 -95.7133 -134.504 75.9342 73.9155 -100.73 0.992401 2.21761 73.7956 9.9621 1.53463 24.8184 1.24123 26.0753 167.869 0.73682 73.9138 -10.4945 16.2438 -1.1154 48.3485 7.25073 10.383 13.5734 3.76978 10.7676 -1.38175 6.92683 -88.8572 13.0415 -2.1938 2.5548 1.36971 -2.07928 2.6488 -21.1692 -2.86005 1.77743 -1.15653 -2.86005 1.77742 106.646 0.203248 -64.0704 14.6228 26.76 -37.8536 -29.8353 33.045 -141.77 -18.0162 -3.94749 20.1275 -77.1202 11.4878 100.533 -86.8246 -60.116 -109.192 -2.43753 16.1564 -98.9521 9.73966 -0.505446 -8.27931 47.5601 -4.5483 8.9806 -18.4512 -8.07523 -9.38144 
31.8246 26.1706 35.9109 -0.497697 -23.2869 -98.3495 -145.586 66.3575 82.1563 -89.7418 3.45381 0.0841701 74.3532 6.20224 -6.70737 24.6007 1.31079 29.7034 168.375 4.53027 69.9908 -6.0585 15.9 -3.33126 49.8645 8.93971 13.6443 4.35774 5.39914 1.80415 -1.22373 6.62805 -89.3808 13.6343 -2.12624 1.5165 1.96411 -2.05744 1.60862 -20.5826 -2.48367 0.807129 -0.569945 -2.48364 0.807124 107.956 -6.27108 -62.8984 4.29823 19.5867 -46.1339 -35.5992 41.3017 -137.216 -17.7201 -4.03268 21.1091 -77.3113 16.7368 100.283 -77.8123 -59.6835 -110.532 0.739705 9.74387 -81.499 16.4029 -0.675019 -7.92512 64.9179 1.39095 9.83033 -31.1619 -4.51295 -6.56724 
24.5523 28.9408 40.7319 0.017584 -17.0361 -101.772 -157.173 54.317 87.6212 -76.9482 4.3717 -1.97541 74.9353 3.36159 -12.9068 20.7837 0.765632 29.4476 161.928 17.9276 61.0116 -21.5542 15.1476 2.12593 56.2828 7.2241 19.212 40.1176 -2.08252 2.04465 -0.779757 6.88946 -89.9332 13.0895 -1.5153 0.322355 1.41923 -1.49967 0.388747 -21.1218 -1.54214 -0.148067 -1.10918 -1.54214 -0.148047 110.245 -16.2029 -60.6654 -8.0354 20.7918 -52.806 -35.3196 43.2054 -137.01 -18.2965 -4.14573 21.0615 -78.023 20.1239 100.168 -77.8744 -66.1865 -104.879 14.2227 12.0238 -82.995 17.5067 -0.488189 -6.6258 85.8306 0.89724 1.42524 -48.2879 -3.23913 5.26276 
